<svg xmlns="http://www.w3.org/2000/svg" viewBox="0 0 15.86 15.86"><defs><style>.cls-1{fill:#1d78bd;}.cls-2{fill:#fff;}</style></defs><title>favicon_blue_white</title><g id="Ebene_2" data-name="Ebene 2"><g id="Ebene_1-2" data-name="Ebene 1"><circle class="cls-1" cx="7.93" cy="7.93" r="7.93"/><path class="cls-2" d="M5.09,11.19A1.49,1.49,0,0,1,6,10V9.91a1.07,1.07,0,0,1-.6-1,1.43,1.43,0,0,1,.7-1.1v0a1.81,1.81,0,0,1-.75-1.5,2.19,2.19,0,0,1,2.4-2.11,2.61,2.61,0,0,1,.92.15h2.39v1H9.75a1.54,1.54,0,0,1,.37,1c0,1.29-1,2-2.34,2a2.78,2.78,0,0,1-.89-.17.63.63,0,0,0-.35.55c0,.38.37.55,1.1.55H8.83c1.51,0,2.3.41,2.3,1.43s-1.31,2.07-3.37,2.07C6.15,12.75,5.09,12.23,5.09,11.19Zm4.72-.29c0-.46-.4-.57-1.18-.57H7.7a3.12,3.12,0,0,1-.89-.09c-.42.24-.57.5-.57.77,0,.52.61.83,1.68.83S9.81,11.4,9.81,10.9ZM8.89,6.29a1.11,1.11,0,1,0-2.21,0,1.11,1.11,0,1,0,2.21,0Z"/></g></g></svg>